# xmcd CD database file
#
# Track frame offsets:
#	150
#	20463
#	37162
#	53128
#	71065
#	88908
#	106647
#	121976
#	135630
#	147948
#	163242
#	178060
#	192120
#	209036
#	225337
#
# Disc length: 3183 seconds
#
# Revision: 0
# Processed by: cddbd v1.5.1PL0 Copyright (c) Steve Scherf et al.
# Submitted via: CDex 1.51
#
DISCID=d90c6d0f
DTITLE=Johnny Cash - The Man Comes Around
DYEAR=1900
DGENRE=Country
TTITLE0=The Man Comes Around
TTITLE1=Hurt
TTITLE2=Give My Love To Rose
TTITLE3=Bridge Over Trouble Water
TTITLE4=I Hung My Head
TTITLE5=The First Time Ever I Saw Your
TTITLE6=Personal Jesus
TTITLE7=In My Life
TTITLE8=Sam Hall
TTITLE9=Danny Boy
TTITLE10=Desperado
TTITLE11=I'm So Lonesome
TTITLE12=Tear Stained Letter
TTITLE13=Streets Of Laredo
TTITLE14=We'll Meet Again
EXTD=
EXTT0=
EXTT1=
EXTT2=
EXTT3=
EXTT4=
EXTT5=
EXTT6=
EXTT7=
EXTT8=
EXTT9=
EXTT10=
EXTT11=
EXTT12=
EXTT13=
EXTT14=
PLAYORDER=
